<?xml version="1.0" standalone="no"?>
<!DOCTYPE svg PUBLIC "-//W3C//DTD SVG 20010904//EN"
 "http://www.w3.org/TR/2001/REC-SVG-20010904/DTD/svg10.dtd">
<svg version="1.0" xmlns="http://www.w3.org/2000/svg"
 width="743.000000pt" height="743.000000pt" viewBox="0 0 743.000000 743.000000"
 preserveAspectRatio="xMidYMid meet">
<metadata>
Created by potrace 1.11, written by Peter Selinger 2001-2013
</metadata>
<g transform="translate(0.000000,743.000000) scale(0.100000,-0.100000)"
fill="#000000" stroke="none">
<path d="M3595 7244 c-43 -16 -99 -64 -120 -104 -15 -29 -23 -81 -30 -195 -21
-333 -22 -356 -31 -585 -5 -107 -8 -310 -8 -450 -1 -286 6 -391 34 -520 6 -25
12 -54 13 -65 5 -26 15 -69 29 -120 165 -615 556 -1137 1105 -1473 210 -129
523 -255 738 -297 117 -23 198 -36 250 -41 33 -3 71 -7 85 -10 36 -6 370 -5
405 1 98 19 171 98 179 192 4 55 -31 192 -89 348 -106 283 -296 600 -490 815
-64 72 -215 219 -264 258 -25 21 -57 47 -71 60 -89 82 -476 312 -605 360 -16
6 -55 21 -85 32 -159 61 -320 105 -508 139 -159 29 -196 55 -242 172 -23 56
-24 60 -41 144 -29 144 -31 550 -4 769 2 16 6 57 9 90 4 34 8 72 10 86 24 145
25 244 4 285 -51 98 -169 145 -273 109z"/>
<path d="M2840 5479 c-123 -28 -465 -199 -621 -309 -191 -135 -342 -270 -489
-436 -179 -201 -346 -469 -460 -739 -14 -33 -77 -218 -85 -250 -5 -16 -11 -37
-13 -45 -3 -8 -6 -44 -6 -80 0 -78 25 -133 81 -180 63 -53 98 -60 298 -60 99
0 191 2 205 4 14 3 48 7 75 10 28 3 70 8 95 12 58 7 290 61 349 80 410 135
725 328 1022 626 130 130 159 180 159 273 0 54 -7 73 -63 185 -117 230 -206
477 -247 685 -16 78 -40 124 -86 165 -62 54 -141 76 -214 59z"/>
<path d="M3633 3977 c-18 -7 -74 -53 -125 -102 -173 -168 -299 -269 -475 -380
-65 -41 -131 -84 -146 -96 -62 -48 -85 -152 -50 -227 19 -42 306 -332 433
-438 117 -98 297 -232 344 -256 48 -24 122 -25 168 -2 49 24 237 166 358 268
146 124 394 375 419 424 25 49 27 108 6 160 -24 57 -50 77 -234 187 -89 53
-298 223 -414 337 -56 55 -118 108 -137 117 -42 21 -103 24 -147 8z"/>
<path d="M4989 3154 c-14 -7 -55 -49 -90 -91 -35 -43 -75 -91 -89 -108 -14
-16 -104 -109 -200 -206 -160 -161 -239 -233 -360 -329 -71 -57 -89 -75 -100
-104 -28 -75 4 -145 85 -187 45 -22 177 -76 320 -130 60 -22 274 -87 311 -93
14 -3 40 -10 57 -15 53 -17 314 -66 407 -77 30 -3 58 -8 62 -10 3 -2 36 -5 71
-5 80 -1 112 16 154 80 68 103 174 347 218 502 62 220 97 488 86 660 -1 12
-17 15 -93 16 -91 0 -266 11 -311 18 -12 2 -49 9 -82 14 -33 6 -77 13 -99 17
-21 3 -90 19 -153 35 -124 32 -155 34 -194 13z"/>
<path d="M2186 3134 c-92 -24 -106 -27 -216 -44 -135 -21 -290 -34 -410 -34
-41 0 -77 -3 -80 -7 -13 -18 5 -293 26 -409 57 -319 206 -701 306 -786 78 -65
129 -67 398 -18 47 9 99 18 115 21 58 9 371 92 445 118 41 15 82 28 90 30 49
12 230 90 258 111 45 35 75 97 74 159 0 77 -26 127 -96 187 -122 105 -154 135
-311 293 -88 88 -200 206 -248 262 -56 67 -100 109 -125 119 -54 25 -125 24
-226 -2z"/>
<path d="M3640 2000 c-14 -4 -88 -39 -165 -78 -117 -59 -200 -96 -360 -163
-66 -27 -168 -63 -295 -104 -166 -53 -207 -77 -243 -143 -51 -95 -41 -160 44
-301 178 -290 407 -579 669 -841 238 -238 297 -284 381 -294 63 -7 116 10 179
57 84 64 414 398 521 527 173 209 377 498 446 631 35 67 38 142 8 206 -34 74
-80 106 -214 148 -245 77 -464 165 -696 282 -153 77 -211 92 -275 73z"/>
</g>
</svg>
